<?xml version="1.0" encoding="utf-8"?>
<!-- Generator: Adobe Illustrator 16.0.0, SVG Export Plug-In . SVG Version: 6.00 Build 0)  -->
<!DOCTYPE svg PUBLIC "-//W3C//DTD SVG 1.1//EN" "http://www.w3.org/Graphics/SVG/1.1/DTD/svg11.dtd">
<svg version="1.1" id="LOGOS" xmlns="http://www.w3.org/2000/svg" xmlns:xlink="http://www.w3.org/1999/xlink" x="0px" y="0px"
	 width="960px" height="1120px" viewBox="0 0 960 1120" enable-background="new 0 0 960 1120" xml:space="preserve">
<g>
	<path fill="#FFFFFF" d="M759.329,557.766l-573.631-0.224c-0.447,0-0.67,0.447-0.67,0.67c0,0.447,0.224,0.671,0.67,0.671
		l573.632,0.447c0.446,0,0.67-0.447,0.67-0.671C760,558.212,759.776,557.766,759.329,557.766z"/>
	<g>
		<path fill="#FFFFFF" d="M41.788,637.989c5.587-2.905,9.386-7.375,9.386-12.738c0-5.586-5.14-12.737-16.983-12.737
			c-4.022,0-5.81,0.224-9.162,0.224s-7.374-0.224-11.396-0.224c-0.224,0-0.224,0.895,0,0.895c3.575,0.446,5.586,0.67,6.48,1.341
			c1.117,0.67,1.788,2.681,1.788,20.111v12.961c0,17.653-0.67,19.665-1.788,20.111c-1.117,0.671-3.128,0.895-6.48,1.341
			c-0.447,0-0.447,0.895,0,0.895c4.022,0,8.044-0.224,11.396-0.224s5.14,0.224,9.162,0.224c15.643,0,22.346-8.269,22.346-16.983
			C56.536,645.587,51.396,640,41.788,637.989z M28.38,614.972c0.224-0.446,2.905-0.67,5.81-0.67c4.916,0,10.726,4.022,10.726,12.737
			c0,6.704-3.575,11.396-10.726,11.396c-3.575,0-5.81-0.224-6.034-0.446c-0.223-0.224-0.223-2.682-0.223-8.045
			C27.933,618.994,28.156,615.195,28.38,614.972z M36.872,668.156c-3.799,0-7.375-0.67-7.821-1.564
			c-0.67-0.67-1.117-4.916-1.117-13.854c0-10.503,0-12.514,0.223-12.737c0-0.224,2.235-0.224,5.14-0.224
			c9.609,0,16.76,5.811,16.76,15.419C50.056,663.464,44.246,668.156,36.872,668.156z"/>
		<path fill="#FFFFFF" d="M138.995,668.38c-0.67,0-1.788,0-2.682,0c-6.257,0-13.631-7.821-25.475-25.475
			c6.257-3.799,10.727-9.162,10.727-16.313c0-6.703-5.587-14.078-18.995-14.078c-4.022,0-7.375,0.224-10.726,0.224
			c-3.352,0-6.928-0.224-10.95-0.224c-0.224,0-0.224,0.895,0,0.895c3.575,0.446,5.14,0.67,6.033,1.341
			c1.118,0.67,1.788,2.681,1.788,20.111v12.961c0,17.653-0.894,19.665-1.788,20.111c-1.117,0.671-2.682,0.895-6.033,1.341
			c-0.447,0-0.447,0.895,0,0.895c4.246,0,18.994,0,23.24,0c0.223,0,0.223-0.895-0.224-0.895c-4.022-0.446-6.48-0.67-7.598-1.341
			c-1.118-0.67-2.011-2.682-2.011-20.111v-2.905c3.575,0.224,7.151,0.224,11.62,0c7.151,12.291,11.843,18.771,16.536,21.899
			c3.576,2.235,6.034,3.129,11.396,3.129c2.235,0,3.352,0,5.14-0.447C139.218,669.497,139.218,668.38,138.995,668.38z
			 M103.24,643.129c-4.246,0-7.598-0.447-8.268-1.118c-0.447-0.446-0.447-2.011-0.447-7.374c0-12.961,0.67-18.994,0.894-19.441
			c0.224-0.446,4.022-0.894,6.927-0.894c8.492,0,12.514,6.928,12.514,15.419C114.86,636.871,110.615,643.129,103.24,643.129z"/>
		<path fill="#FFFFFF" d="M170.279,614.525c1.117-0.671,3.352-0.895,6.927-1.341c0.447,0,0.447-0.895,0-0.895
			c-4.246,0-18.771,0-23.24,0c-0.223,0-0.223,0.895,0.224,0.895c3.575,0.446,5.81,0.67,6.704,1.341
			c1.117,0.67,1.788,2.682,1.788,20.111v12.961c0,17.653-0.67,19.665-1.788,20.111c-1.118,0.671-3.352,0.895-6.704,1.342
			c-0.447,0-0.447,0.894-0.224,0.894c4.246,0,18.995,0,23.24,0c0.224,0,0.224-0.894,0-0.894c-3.575-0.447-5.81-0.671-6.927-1.342
			c-1.117-0.67-1.788-2.681-1.788-20.111v-12.961C168.268,617.207,169.162,615.195,170.279,614.525z"/>
		<path fill="#FFFFFF" d="M260.335,642.682c-4.246,0-16.313,0-20.559,0c-0.223,0-0.223,0.894,0.224,0.894
			c3.575,0.447,5.586,0.671,6.704,1.341c0.67,0.447,1.117,2.234,1.341,21.006c-2.682,1.117-6.704,2.011-10.503,2.011
			c-16.983,0-27.486-13.854-27.486-28.604c0-12.737,7.151-25.251,23.24-25.251c6.034,0,11.844,3.129,15.196,6.257
			c1.788,1.788,3.128,4.693,3.575,7.151c0,0.446,1.118,0.446,1.118,0c0-4.693-0.447-9.609-0.447-12.737
			c0-0.224-0.223-0.447-0.67-0.224c-3.128,0.67-8.268-2.458-17.653-2.458c-19.888,0-30.615,14.972-30.615,30.167
			c0,15.643,13.855,28.604,30.838,28.604c7.375,0,14.302-2.011,19.218-4.916v-1.117c-0.224-17.654,0.447-19.441,1.117-19.889
			c1.117-0.67,2.234-0.894,5.586-1.341C260.782,643.575,260.559,642.682,260.335,642.682z"/>
		<path fill="#FFFFFF" d="M345.698,669.273c-3.575-0.446-4.916-0.67-6.257-1.341c-1.117-0.67-1.788-2.682-1.788-20.111V634.86
			c0-17.431,0.895-19.665,1.788-20.111c1.117-0.671,2.682-0.895,6.257-1.341c0.447,0,0.447-0.895,0-0.895c-4.246,0-17.43,0-21.676,0
			c-0.224,0-0.224,0.895,0,0.895c3.575,0.446,4.916,0.67,6.257,1.341c1.117,0.67,1.788,2.681,1.788,20.111v4.692H297.43v-4.692
			c0-17.431,0.67-19.665,1.788-20.111c1.117-0.671,2.682-0.895,6.034-1.341c0.447,0,0.447-0.895,0-0.895c-4.246,0-17.43,0-21.676,0
			c-0.223,0-0.223,0.895,0,0.895c3.576,0.446,5.14,0.67,6.034,1.341c1.117,0.67,1.788,2.681,1.788,20.111v12.961
			c0,17.653-0.894,19.665-1.788,20.111c-1.117,0.671-2.682,0.895-6.034,1.341c-0.447,0-0.447,0.895,0,0.895
			c4.246,0,17.431,0,21.676,0c0.224,0,0.224-0.895,0-0.895c-3.576-0.446-4.917-0.67-6.034-1.341
			c-1.117-0.67-1.788-2.682-1.788-20.111v-6.033h34.637v6.033c0,17.653-0.895,19.665-1.788,20.111
			c-1.117,0.671-2.682,0.895-6.257,1.341c-0.447,0-0.447,0.895,0,0.895c4.246,0,17.43,0,21.676,0
			C345.922,670.168,345.922,669.273,345.698,669.273z"/>
		<path fill="#FFFFFF" d="M421.676,669.273c-2.458-0.224-3.799-0.446-5.363-1.341c-1.341-0.894-2.458-2.682-9.385-20.111
			l-4.917-12.961c-3.128-8.045-5.586-14.525-8.268-22.123c-0.224-0.67-0.894-0.67-1.117,0c-2.235,6.928-5.14,14.749-7.821,22.123
			l-4.693,12.961c-6.48,17.653-8.044,19.218-8.938,19.888c-1.341,0.895-2.904,1.341-5.586,1.564c-0.447,0-0.224,0.895,0,0.895
			c4.245,0,14.078,0,16.76,0c0.224,0,0.446-0.895,0-0.895c-3.799-0.446-5.587-0.446-5.587-2.234s1.788-7.374,6.257-19.218v-0.224
			h18.101v0.224c5.363,13.407,6.928,18.324,6.928,19.665s-2.234,1.341-4.916,1.787c-0.447,0-0.224,0.895,0,0.895
			c4.245,0,14.301,0,18.547,0C422.123,670.168,422.123,669.273,421.676,669.273z M383.688,645.363l8.268-22.793l8.269,22.793
			H383.688z"/>
		<path fill="#FFFFFF" d="M514.413,669.273c-3.575-0.446-5.14-0.67-6.257-1.341c-1.341-0.67-1.787-2.682-3.799-20.111l-1.341-12.961
			c-0.894-8.045-1.341-14.525-1.788-22.123c0-0.447-0.894-0.447-1.117-0.224l-23.24,49.386l-25.027-49.386
			c-0.224-0.446-1.117-0.224-1.117,0.224c-0.224,6.928-0.671,14.749-1.117,22.123l-0.895,12.961
			c-1.341,17.653-2.458,19.218-3.128,19.888c-0.895,0.895-2.905,1.118-6.48,1.564c-0.447,0-0.447,0.895-0.224,0.895
			c4.246,0,14.525,0,18.771,0c0.224,0,0.447-0.895,0-0.895c-2.458-0.224-4.916-0.446-5.586-1.117
			c-0.895-0.67-2.235-2.682-0.447-20.782l1.341-20.111l21.899,43.128c0.224,0.447,0.894,0.224,0.894,0l20.559-43.575l2.012,21.006
			c2.011,17.653,1.341,19.665,0.446,20.335c-0.894,0.671-2.904,0.894-5.362,1.117c-0.447,0-0.224,0.895,0,0.895
			c4.245,0,16.536,0,20.781,0C514.86,670.168,514.637,669.273,514.413,669.273z"/>
		<path fill="#FFFFFF" d="M617.43,612.29c-4.245,0-14.301,0-16.982,0c-0.224,0-0.447,0.895,0,0.895
			c2.458,0.224,4.692,0.446,5.586,0.67c0.671,0.447,0.895,1.788-5.363,11.844l-9.832,16.313l-8.715-14.972
			c-6.48-11.844-7.151-13.185-6.48-13.631c0.67-0.447,2.905-0.447,4.916-0.447c0.447,0,0.224-0.894,0-0.894
			c-4.246,0-14.972,0-18.994,0c-0.224,0-0.447,0.894,0,0.894c2.458,0.224,3.799,0,5.14,0.67c1.341,0.447,2.011,1.788,8.715,12.515
			l4.916,7.821c2.458,4.022,4.47,7.15,6.257,10.726v2.682c0,17.654-0.894,19.665-1.787,20.336c-1.117,0.67-3.353,0.894-6.928,1.341
			c-0.447,0-0.447,0.894,0,0.894c4.246,0,18.994,0,23.24,0c0.224,0,0.224-0.894,0-0.894c-3.575-0.447-5.81-0.671-6.927-1.341
			c-1.118-0.671-1.788-2.682-1.788-20.336v-2.682c2.011-3.352,4.022-6.927,6.257-10.279l4.916-7.821
			c6.48-10.726,7.598-12.066,8.492-12.514c1.341-0.447,3.128-0.67,5.81-0.894C617.877,613.185,617.877,612.29,617.43,612.29z"/>
		<path fill="#FFFFFF" d="M695.643,640.67c0-16.089-12.737-28.603-29.051-28.603c-18.101,0-30.167,14.748-30.167,30.167
			c0,16.09,12.737,28.604,29.05,28.604C683.575,670.614,695.643,655.866,695.643,640.67z M642.905,639.33
			c0-11.397,6.257-25.028,22.123-25.028c14.302,0,24.357,14.302,24.357,28.827c0,11.396-6.257,25.027-22.123,25.027
			C652.961,668.156,642.905,653.854,642.905,639.33z"/>
		<path fill="#FFFFFF" d="M773.185,614.749c0.894-0.895,2.682-1.118,6.257-1.564c0.447,0,0.224-0.895,0-0.895
			c-4.246,0-14.749,0-18.994,0c-0.224,0-0.447,0.895,0,0.895c3.575,0.446,5.586,0.67,6.48,1.564c0.67,0.67,1.563,2.458,1.563,19.888
			v14.525c0,9.832-5.81,17.877-16.76,17.877c-11.843,0-18.771-7.821-18.771-18.771v-13.632c0-17.43,0.67-19.665,1.787-20.111
			c1.118-0.671,2.905-0.895,6.48-1.341c0.447,0,0.447-0.895,0-0.895c-4.245,0-17.877,0-22.122,0c-0.224,0-0.224,0.895,0,0.895
			c3.575,0.446,5.14,0.67,6.033,1.341c1.117,0.67,1.788,2.682,1.788,20.111v15.195c0,11.62,8.491,20.782,22.346,20.782
			c14.078,0,21.899-10.279,21.899-21.005v-14.973C771.844,617.43,772.514,615.419,773.185,614.749z"/>
		<path fill="#FFFFFF" d="M865.028,612.514c-4.246,0-16.313,0-20.56,0c-0.223,0-0.446,1.117,0,1.117
			c3.8,0.224,6.034,0.671,6.928,1.564c0.894,0.895,2.234,2.234,2.458,19.665l0.447,24.805l-44.246-47.375
			c-0.224-0.446-1.564-0.223-1.564,0.224c0.447,6.928,0.447,14.973,0.447,22.347l0.224,12.961
			c0.224,17.653-0.894,18.771-1.564,19.441c-0.894,0.894-3.128,1.341-6.48,1.788c-0.447,0-0.224,1.117,0,1.117
			c4.246,0,15.866,0,20.559,0c0.224,0,0.447-1.117,0-1.117c-2.458,0-5.586-0.895-6.48-1.564c-1.117-0.895-2.234-3.576-2.458-19.665
			l-0.446-24.581l44.245,47.15c0.447,0.447,1.564,0.224,1.564-0.223c-0.447-6.928-0.447-14.973-0.447-22.347V634.86
			c0-17.431,0.895-18.771,1.564-19.441c0.894-0.894,2.682-1.341,6.257-1.788C865.475,613.408,865.251,612.514,865.028,612.514z"/>
		<path fill="#FFFFFF" d="M946.146,642.682c-4.246,0-16.313,0-20.559,0c-0.224,0-0.224,0.894,0.223,0.894
			c3.576,0.447,5.587,0.671,6.704,1.341c0.671,0.447,1.117,2.234,1.341,21.006c-2.682,1.117-6.704,2.011-10.503,2.011
			c-16.982,0-27.485-13.854-27.485-28.604c0-12.737,7.15-25.251,23.24-25.251c6.033,0,11.843,3.129,15.195,6.257
			c1.787,1.788,3.128,4.693,3.352,7.151c0,0.446,1.117,0.446,1.117,0c0-4.693-0.446-9.609-0.446-12.737
			c0-0.224-0.224-0.447-0.671-0.224c-3.128,0.67-8.268-2.458-17.653-2.458c-19.889,0-30.614,14.972-30.614,30.167
			c0,15.643,13.854,28.604,30.838,28.604c7.374,0,14.302-2.011,19.218-4.916v-1.117c-0.224-17.654,0.447-19.441,1.117-19.889
			c1.117-0.67,2.234-0.894,5.587-1.341C946.369,643.575,946.369,642.682,946.146,642.682z"/>
		<path fill="#FFFFFF" d="M234.414,742.123c-5.587,0-7.821,0-13.631,0c-0.224,0-0.224,0.67,0,0.894
			c2.458,0.224,3.799,0.671,4.469,1.117c0.447,0.447,1.117,1.341,1.117,13.185v9.386c0,6.704-3.575,12.066-11.173,12.066
			c-7.598,0-12.514-5.362-12.514-12.737v-8.715c0-11.844,0.447-12.961,1.341-13.408c0.67-0.446,2.011-0.894,4.469-1.117
			c0.223,0,0.223-0.894,0-0.894c-5.81,0-10.056,0-15.643,0c-0.224,0-0.224,0.67,0,0.894c2.458,0.224,3.352,0.671,4.022,1.117
			c0.67,0.447,1.341,1.341,1.341,13.408v10.279c0,7.821,6.033,14.078,15.419,14.078c9.385,0,15.195-6.927,15.195-14.302v-10.056
			c0-11.844,0.447-12.737,1.118-13.185c0.67-0.446,1.788-0.894,4.246-1.117C234.637,743.017,234.637,742.123,234.414,742.123z"/>
		<path fill="#FFFFFF" d="M305.028,742.123c-5.81,0-8.715,0-14.525,0c-0.224,0-0.224,0.67,0,0.894
			c2.458,0.224,4.022,0.447,4.692,1.117c0.67,0.447,1.564,1.341,1.564,13.408l0.224,16.089l-29.944-31.284
			c-0.224-0.224-1.341-0.224-1.341,0.223c0.224,4.693,0.224,10.057,0.447,15.196l0.223,8.715
			c0.224,11.844-0.447,12.737-1.117,13.185c-0.67,0.446-2.011,0.894-4.469,1.117c-0.224,0-0.224,0.894,0,0.894
			c5.81,0,8.268,0,14.302,0c0.223,0,0.223-0.894,0-0.894c-1.564,0-3.799-0.671-4.246-1.117c-0.894-0.671-1.564-2.458-1.788-13.408
			l-0.224-15.866l29.721,31.062c0.224,0.224,1.341,0.224,1.341-0.224c-0.223-4.692-0.223-10.056-0.223-15.195v-8.715
			c-0.224-11.844,0.447-12.737,1.117-13.185c0.67-0.446,1.788-0.894,4.246-1.117C305.475,743.017,305.251,742.123,305.028,742.123z"
			/>
		<path fill="#FFFFFF" d="M346.369,744.134c0.67-0.446,2.234-0.894,4.692-1.117c0.224,0,0.224-0.894,0-0.894
			c-5.811,0-10.727,0-16.313,0c-0.224,0-0.224,0.67,0,0.894c2.458,0.224,4.021,0.671,4.692,1.117
			c0.67,0.447,1.341,1.341,1.341,13.408v8.715c0,11.844-0.447,12.961-1.341,13.408c-0.671,0.446-2.234,0.67-4.692,1.117
			c-0.224,0-0.224,0.894,0,0.894c5.81,0,10.726,0,16.313,0c0.224,0,0.224-0.67,0-0.894c-2.458-0.224-3.799-0.671-4.692-1.117
			c-0.895-0.447-1.341-1.341-1.341-13.408v-8.715C345.028,745.475,345.475,744.357,346.369,744.134z"/>
		<path fill="#FFFFFF" d="M418.324,742.123c-4.246,0-8.715,0-12.291,0c-0.224,0-0.224,0.67,0,0.894
			c2.458,0.224,3.576,0.894,3.576,2.012c0,1.341-0.447,4.245-3.799,12.514l-6.704,17.43l-6.48-17.43
			c-3.799-9.162-4.47-11.62-4.47-12.737c0-0.895,1.117-1.341,3.353-1.564c0.223,0,0.223-0.894,0-0.894c-5.811,0-9.386,0-14.302,0
			c-0.224,0-0.224,0.67,0,0.894c1.787,0.224,3.128,0.447,4.022,1.117c1.117,0.671,2.011,2.682,6.48,13.185l3.575,8.715
			c2.234,5.587,3.799,9.832,5.81,14.972c0.224,0.447,2.012,0.447,2.012,0c1.563-4.692,3.799-10.056,5.81-14.972l3.576-8.715
			c4.692-11.844,5.81-12.737,6.479-13.185c0.895-0.67,1.788-0.894,3.576-1.117C418.548,743.017,418.548,742.123,418.324,742.123z"/>
		<path fill="#FFFFFF" d="M470.168,773.185c-0.447,1.787-1.118,3.128-2.012,4.245c-1.117,1.118-3.128,1.788-6.928,1.788
			c-3.575,0-4.916-0.447-5.586-1.117c-0.894-0.894-1.341-4.022-1.341-11.844v-4.022h4.916c4.246,0,5.14,0.447,5.811,0.895
			c0.67,0.446,0.894,1.787,0.894,2.904c0,0.224,0.894,0.224,0.894,0c0-3.352,0.224-5.363,0.224-8.715c0-0.224-0.894-0.224-0.894,0
			c-0.447,2.234-1.117,2.905-6.928,2.905h-4.916v-8.715c0-3.799,0-6.258,0.224-6.928c0.67,0,2.904-0.224,5.14-0.224
			c4.245,0,6.257,0.447,7.15,1.564c0.894,0.894,1.117,2.234,1.117,3.799c0,0.447,0.895,0.447,0.895,0.224
			c0.446-3.353,0.446-5.587,0.67-7.821c0-0.224-0.224-0.224-0.447-0.224c-1.787,0.224-4.021,0.224-9.161,0.224
			c-4.022,0-10.95,0-15.643-0.224c-0.224,0-0.224,0.67,0,0.894c2.458,0.224,3.352,0.671,4.245,1.117
			c0.671,0.447,1.341,1.341,1.341,13.408v8.715c0,11.844-0.446,12.961-1.341,13.408c-0.67,0.446-1.787,0.67-4.245,1.117
			c-0.224,0-0.224,0.894,0,0.894c4.245,0,6.257-0.224,10.056-0.224c5.14,0,8.715,0.224,12.514,0.224
			c1.564,0,2.234-0.446,2.682-1.117c0.447-0.894,0.894-3.799,1.117-6.928C471.062,772.961,470.391,772.737,470.168,773.185z"/>
		<path fill="#FFFFFF" d="M540.782,780.111c-0.447,0-1.117,0-1.788,0c-4.245,0-9.385-4.916-17.43-16.982
			c4.245-2.682,7.15-6.48,7.15-11.397c0-4.692-4.246-9.608-13.185-9.608c-2.681,0-5.14,0.224-7.374,0.224s-4.916-0.224-7.598-0.224
			c-0.224,0-0.224,0.67,0,0.894c2.458,0.224,3.352,0.671,4.022,1.117c0.894,0.447,1.341,1.341,1.341,13.408v8.715
			c0,11.844-0.447,12.961-1.341,13.408c-0.671,0.446-1.788,0.67-4.022,1.117c-0.224,0-0.224,0.894,0,0.894
			c5.587,0,10.727,0,16.313,0c0.224,0,0.224-0.67,0-0.894c-2.682-0.224-4.469-0.447-5.362-1.117
			c-0.671-0.447-1.341-1.341-1.341-13.408v-1.788c2.234,0.224,4.245,0.224,7.15,0c4.916,8.269,8.045,12.515,11.173,14.525
			c2.458,1.564,4.47,2.012,8.045,2.012c1.341,0,2.682,0,3.799-0.224C541.006,780.782,541.006,780.111,540.782,780.111z
			 M516.425,762.682c-2.905,0-4.47-0.447-5.14-0.894c-0.224-0.447-0.447-0.895-0.447-4.47c0-8.715,0.447-12.067,0.894-12.514
			c0.224-0.447,2.012-0.895,4.246-0.895c5.811,0,8.269,4.246,8.269,10.057C524.022,758.883,521.341,762.682,516.425,762.682z"/>
		<path fill="#FFFFFF" d="M568.491,749.721c0-3.799,2.458-6.033,6.257-6.033c2.235,0,4.022,0.894,5.363,2.234
			c1.117,1.117,2.012,3.352,2.235,5.14c0,0.224,0.894,0.224,0.894,0c0.224-3.129,0-6.033,0-8.045c0-0.224-0.224-0.224-0.447-0.224
			c-2.234,0.447-3.128-1.117-7.598-1.117c-5.587,0-10.727,3.799-10.727,10.056c0,10.057,16.09,11.397,16.09,20.559
			c0,4.022-2.458,7.375-7.374,7.375c-3.576,0-6.034-1.788-7.598-4.022c-0.895-1.341-1.788-3.353-1.788-5.587
			c0-0.446-0.894-0.446-0.894,0c-0.224,3.129-0.224,6.257,0.224,8.269c0.223,0.67,3.799,3.575,9.385,3.575
			c6.034,0,12.737-3.799,12.737-11.396C585.251,760.447,568.491,757.318,568.491,749.721z"/>
		<path fill="#FFFFFF" d="M627.709,744.134c0.671-0.446,2.235-0.894,4.693-1.117c0.224,0,0.224-0.894,0-0.894
			c-5.811,0-10.727,0-16.313,0c-0.224,0-0.224,0.67,0,0.894c2.458,0.224,4.021,0.671,4.692,1.117
			c0.67,0.447,1.341,1.341,1.341,13.408v8.715c0,11.844-0.447,12.961-1.341,13.408c-0.671,0.446-2.234,0.67-4.692,1.117
			c-0.224,0-0.224,0.894,0,0.894c5.81,0,10.726,0,16.313,0c0.224,0,0.224-0.67,0-0.894c-2.458-0.224-3.799-0.671-4.693-1.117
			c-0.894-0.447-1.34-1.341-1.34-13.408v-8.715C626.369,745.475,626.815,744.357,627.709,744.134z"/>
		<path fill="#FFFFFF" d="M696.76,741.676c-1.117,0.447-3.129,0.894-17.653,0.894c-10.503,0-15.196-0.223-17.431-0.67
			c-0.224,0-0.447,0.224-0.447,0.224c-0.223,2.011-0.446,5.363-0.894,8.491c0,0.224,0.894,0.447,0.894,0.224
			c0.224-1.341,0.895-3.352,1.788-4.022c1.564-1.341,4.246-2.011,10.503-2.011c1.341,0,2.458,0,3.129,0.224
			c0.223,0.67,0.223,2.904,0.223,6.927v14.749c0,11.844-0.446,12.961-1.341,13.407c-0.894,0.447-2.234,0.671-4.692,1.118
			c-0.224,0-0.224,0.894,0,0.894c5.811,0,10.727,0,16.313,0c0.224,0,0.224-0.671,0-0.894c-2.458-0.224-3.799-0.671-4.692-1.118
			c-0.671-0.446-1.341-1.341-1.341-13.407v-14.749c0-3.799,0-6.257,0.224-6.927c0.67,0,1.341-0.224,2.682-0.224
			c6.48,0,9.386,0.894,10.503,2.011c0.894,0.894,1.117,2.458,1.117,4.022c0,0.224,0.894,0.224,0.894,0.224
			c0.447-3.129,0.447-6.48,0.447-8.715C696.983,741.899,696.983,741.676,696.76,741.676z"/>
		<path fill="#FFFFFF" d="M761.564,742.123c-5.363,0-8.715,0-12.291,0c-0.224,0-0.224,0.894,0,0.894
			c1.564,0,2.682,0.447,3.129,0.671c0.447,0.446,1.117,0.894-3.129,7.821l-6.257,10.056l-6.033-10.279
			c-4.47-6.928-4.47-7.598-4.022-7.821s1.341-0.447,2.905-0.447c0.224,0,0.224-0.894,0-0.894c-5.811,0-7.821,0-13.632,0
			c-0.224,0-0.224,0.894,0,0.894c1.788,0,2.682,0.224,3.575,0.671c0.895,0.446,1.564,0.894,6.258,8.268l3.352,5.363
			c1.564,2.682,2.905,4.916,4.246,7.15v1.788c0,11.844-0.447,12.961-1.341,13.408c-0.671,0.446-2.235,0.67-4.693,1.117
			c-0.224,0-0.224,0.894,0,0.894c5.811,0,10.727,0,16.313,0c0.224,0,0.224-0.67,0-0.894c-2.458-0.224-3.799-0.671-4.693-1.117
			c-0.67-0.447-1.341-1.341-1.341-13.408v-2.011c1.341-2.235,2.682-4.693,4.246-6.928l3.352-5.363
			c4.47-7.374,5.587-7.821,6.034-8.045c0.894-0.446,2.011-0.67,3.799-0.67C761.788,743.017,761.788,742.123,761.564,742.123z"/>
		<path fill="#FFFFFF" d="M576.536,338.994L576.536,338.994c2.682,0.671,4.47,1.564,6.48,3.129c2.682,2.234,3.353,4.692,3.353,9.162
			v81.117c0,39.106,21.452,72.402,86.48,72.402c65.027,0,86.48-33.296,86.48-72.402v-80.894c0-4.469,0.223-7.374,3.352-8.715
			c4.022-2.011,6.257-2.682,10.949-3.576l0,0c0.224,0,0.224-0.67,0-0.67h-82.682c-0.223,0-0.223,0.67,0,0.67l0,0
			c4.693,1.117,6.928,1.564,10.95,3.576c2.905,1.564,3.129,4.469,3.129,8.938v82.681c0,18.771-10.727,33.297-32.179,33.297
			c-21.453,0-32.18-14.525-32.18-33.297v-82.458c0-4.469,0.224-7.374,3.353-8.938c4.022-2.011,6.257-2.682,10.949-3.575l0,0
			c0.224,0,0.224-0.67,0-0.67h-77.988C576.313,338.324,576.313,338.994,576.536,338.994z"/>
		<path fill="#FFFFFF" d="M332.737,414.749c-0.224,0-0.224-0.224,0-0.447c12.514-4.022,24.134-13.185,24.134-35.531
			c0-30.391-20.559-40.67-65.027-40.67H184.805c-0.224,0-0.224,0.67,0,0.67l0,0c4.692,1.117,6.927,1.564,10.95,3.575
			c2.905,1.788,3.128,4.693,3.128,9.162v137.43c0,4.47-0.224,7.374-3.352,8.938c-4.022,2.012-6.257,2.682-10.95,3.575l0,0
			c-0.224,0-0.224,0.671,0,0.671c0.447,0,111.062,0,111.062,0c46.928,0,66.592-18.548,66.592-47.598
			C362.458,433.072,352.402,419.665,332.737,414.749z M251.173,369.162h25.028c16.313,0,25.922,2.458,25.922,17.43
			c0,9.609-6.034,18.324-25.251,18.324h-25.698V369.162L251.173,369.162z M275.307,470.391h-24.134v-40.223h21.676
			c14.525,0,32.179,0,32.179,20.111C305.251,465.251,292.514,470.391,275.307,470.391z"/>
		<path fill="#FFFFFF" d="M569.162,338.994L569.162,338.994c0.224,0,0.224-0.67,0-0.67h-75.531c-0.223,0-0.223,0.67,0,0.67l0,0
			c2.682,0,7.151,0.224,6.704,6.704c-0.224,5.587-29.273,46.704-32.626,52.961c-10.279-15.419-32.401-46.927-32.625-52.961
			c-0.224-5.14,4.022-6.704,7.821-6.704l0,0c0.224,0,0.224-0.67,0-0.67h-80.224c-0.224,0-0.224,0.67,0,0.67l0,0
			c3.352,0.671,5.14,1.118,8.938,2.905c0.447,0.224,1.564,0.894,2.011,1.341c2.459,2.234,4.47,4.469,7.598,9.162l56.537,83.799
			v52.514c0,4.47-0.224,7.375-3.353,8.938c-4.022,2.012-6.257,2.682-10.949,3.576l0,0c-0.224,0-0.224,0.67,0,0.67h87.15
			c0.224,0,0.224-0.67,0-0.67l0,0c-4.692-1.118-6.927-1.564-10.949-3.576c-2.905-1.563-3.353-4.469-3.353-8.938v-52.066
			l56.76-84.246c3.129-4.693,5.14-6.928,7.598-9.162c0.447-0.447,1.341-1.117,2.012-1.564
			C565.14,340.335,566.257,339.665,569.162,338.994z"/>
	</g>
</g>
</svg>
